<?xml version="1.0" encoding="utf-8"?>
<!-- Svg Vector Icons : http://www.onlinewebfonts.com/icon -->
<!DOCTYPE svg PUBLIC "-//W3C//DTD SVG 1.1//EN" "http://www.w3.org/Graphics/SVG/1.1/DTD/svg11.dtd">
<svg version="1.1" xmlns="http://www.w3.org/2000/svg" xmlns:xlink="http://www.w3.org/1999/xlink" x="0px" y="0px" viewBox="0 0 1000 1000" enable-background="new 0 0 1000 1000" xml:space="preserve">
<metadata> Svg Vector Icons : http://www.onlinewebfonts.com/icon </metadata>
<g><path d="M965.5,169.3h-931c-13.5,0-24.5,11-24.5,24.5v612.5c0,13.5,11,24.5,24.5,24.5h931c13.5,0,24.5-11,24.5-24.5V193.8C990,180.3,979,169.3,965.5,169.3L965.5,169.3z M906.7,218.3L500,625L93.3,218.3H906.7L906.7,218.3z M59,252.5L306.5,500L59,747.5V252.5L59,252.5z M94.5,781.8l246.2-246.2l142.1,142.1c9.8,9.8,24.5,9.8,34.3,0l142.1-142.1l246.2,246.2H94.5L94.5,781.8z M941,747.5L693.5,500L941,252.5V747.5L941,747.5z"/></g>
</svg>