<?xml version="1.0" encoding="utf-8"?>
<!-- Generator: Adobe Illustrator 16.0.0, SVG Export Plug-In . SVG Version: 6.00 Build 0)  -->
<!DOCTYPE svg PUBLIC "-//W3C//DTD SVG 1.1//EN" "http://www.w3.org/Graphics/SVG/1.1/DTD/svg11.dtd">
<svg version="1.1" id="Layer_1" xmlns="http://www.w3.org/2000/svg" xmlns:xlink="http://www.w3.org/1999/xlink" x="0px" y="0px"
	 width="550.57px" height="86.312px" viewBox="0 0 550.57 86.312" enable-background="new 0 0 550.57 86.312" xml:space="preserve">
<g enable-background="new    ">
	<path d="M45.82,75.01c-1.76,3.08-4.163,5.299-7.205,6.654c-3.044,1.356-6.325,2.035-9.845,2.035
		c-6.894,0-12.229-1.997-16.005-5.995C8.987,73.708,7.1,68.263,7.1,61.369c0-4.691,0.622-9.275,1.87-13.75
		c1.246-4.472,3.152-8.47,5.72-11.989c2.566-3.521,5.792-6.361,9.68-8.525c3.886-2.162,8.47-3.245,13.75-3.245
		c3.3,0,6.471,0.734,9.515,2.2c3.042,1.468,5.188,3.777,6.435,6.93h0.22l6.27-29.26h15.62l-16.61,78.54H44.5l1.54-7.04L45.82,75.01z
		 M32.125,37.939c-2.164,1.54-3.943,3.484-5.335,5.83c-1.394,2.348-2.42,4.914-3.08,7.7c-0.66,2.788-0.99,5.428-0.99,7.92
		c0,1.688,0.237,3.3,0.715,4.84c0.476,1.54,1.172,2.879,2.09,4.015c0.916,1.139,2.071,2.055,3.465,2.75
		c1.392,0.698,3.006,1.045,4.84,1.045c2.932,0,5.462-0.787,7.59-2.364c2.126-1.576,3.905-3.575,5.335-5.995
		c1.43-2.42,2.492-5.041,3.19-7.865c0.696-2.822,1.045-5.445,1.045-7.865c0-3.739-0.918-6.727-2.75-8.965
		c-1.834-2.236-4.658-3.354-8.47-3.354C36.836,35.63,34.287,36.399,32.125,37.939z"/>
	<path d="M89.269,58.619c0,0.294,0,0.588,0,0.881v1.43c0,3.3,1.026,5.978,3.08,8.03c2.052,2.054,5.206,3.079,9.46,3.079
		c1.54,0,2.915-0.236,4.125-0.715c1.21-0.476,2.272-1.081,3.19-1.814c0.916-0.732,1.722-1.576,2.42-2.53
		c0.696-0.952,1.337-1.87,1.925-2.75h15.62c-1.248,3.228-2.714,6.05-4.4,8.47c-1.688,2.42-3.704,4.455-6.05,6.105
		c-2.348,1.649-5.079,2.879-8.195,3.685c-3.118,0.807-6.729,1.21-10.835,1.21c-3.814,0-7.279-0.514-10.395-1.54
		c-3.118-1.025-5.775-2.585-7.975-4.675c-2.2-2.09-3.905-4.675-5.115-7.755s-1.815-6.672-1.815-10.78
		c0-4.546,0.732-8.927,2.2-13.145c1.466-4.216,3.538-7.956,6.215-11.22c2.676-3.263,5.957-5.866,9.845-7.811
		c3.886-1.942,8.25-2.915,13.09-2.915c3.96,0,7.571,0.514,10.835,1.54c3.262,1.028,6.05,2.585,8.36,4.675s4.106,4.694,5.39,7.811
		c1.282,3.117,1.925,6.729,1.925,10.835c0,2.788-0.294,5.758-0.88,8.91h-41.91C89.305,57.997,89.269,58.327,89.269,58.619z
		 M116.714,43.385c-0.258-1.431-0.753-2.731-1.485-3.905c-0.734-1.172-1.798-2.107-3.19-2.805c-1.394-0.696-3.228-1.045-5.5-1.045
		c-2.2,0-4.144,0.33-5.83,0.989c-1.688,0.66-3.154,1.54-4.4,2.641c-1.248,1.1-2.293,2.384-3.135,3.85
		c-0.844,1.468-1.559,3.008-2.145,4.62h26.07C117.099,46.263,116.97,44.814,116.714,43.385z"/>
</g>
<g enable-background="new    ">
	<path d="M161.758,25.399l-2.31,10.23l0.22,0.22c1.76-3.96,4.417-6.947,7.975-8.965c3.556-2.017,7.425-3.025,11.605-3.025
		c1.612,0,3.226,0.11,4.84,0.33l-3.19,15.18c-1.1-0.22-2.2-0.439-3.3-0.659c-1.1-0.221-2.2-0.33-3.3-0.33
		c-3.008,0-5.555,0.514-7.645,1.54c-2.09,1.027-3.85,2.42-5.28,4.18c-1.43,1.76-2.568,3.759-3.41,5.995
		c-0.844,2.237-1.523,4.564-2.035,6.984l-5.28,25.19h-15.51l11.77-56.87H161.758z"/>
</g>
<g enable-background="new    ">
	<path d="M195.417,82.269l-7.48-56.87h16.06l3.52,40.48h0.22l20.13-40.48h16.5l-31.13,56.87H195.417z"/>
</g>
<g enable-background="new    ">
	<path fill="#FFD400" d="M273.316,25.399l-12.1,56.87h-15.62l11.99-56.87H273.316z M259.346,16.599l2.86-12.87h15.729l-2.859,12.87
		H259.346z"/>
</g>
<g enable-background="new    ">
	<path d="M315.052,36.344c-1.358-1.356-3.575-2.035-6.655-2.035c-2.787,0-5.078,0.423-6.875,1.265
		c-1.798,0.844-2.695,2.293-2.695,4.346c0,1.247,0.531,2.31,1.596,3.189c1.062,0.88,2.914,1.724,5.555,2.53l7.811,2.53
		c2.125,0.659,4.086,1.43,5.885,2.31c1.796,0.88,3.372,1.963,4.729,3.245c1.356,1.284,2.421,2.805,3.19,4.564
		c0.77,1.761,1.154,3.814,1.154,6.16c0,3.521-0.789,6.509-2.365,8.965c-1.577,2.458-3.648,4.455-6.215,5.995
		c-2.567,1.54-5.463,2.641-8.689,3.301c-3.229,0.659-6.49,0.989-9.79,0.989c-2.788,0-5.61-0.294-8.47-0.88
		c-2.86-0.586-5.445-1.557-7.756-2.915c-2.31-1.355-4.198-3.152-5.664-5.39c-1.467-2.236-2.2-5.041-2.2-8.415v-2.311h14.409v1.87
		c0,1.32,0.33,2.458,0.99,3.41c0.66,0.954,1.521,1.743,2.586,2.365c1.062,0.624,2.271,1.1,3.629,1.43s2.695,0.495,4.016,0.495
		c1.172,0,2.346-0.109,3.52-0.33c1.173-0.22,2.236-0.604,3.19-1.154c0.952-0.551,1.722-1.246,2.31-2.091
		c0.586-0.842,0.881-1.925,0.881-3.245c0-1.979-0.514-3.372-1.541-4.18c-1.027-0.806-2.383-1.502-4.069-2.09l-11.99-3.85
		c-1.979-0.66-3.723-1.356-5.225-2.091c-1.504-0.731-2.788-1.649-3.851-2.75c-1.063-1.1-1.869-2.42-2.42-3.96
		c-0.55-1.54-0.824-3.445-0.824-5.72c0-3.372,0.787-6.196,2.365-8.47c1.575-2.272,3.61-4.125,6.104-5.555
		c2.492-1.431,5.225-2.457,8.194-3.08c2.971-0.623,5.812-0.936,8.525-0.936c3.08,0,6.051,0.258,8.91,0.771
		c2.859,0.514,5.371,1.448,7.535,2.805c2.162,1.357,3.867,3.209,5.115,5.555c1.246,2.348,1.832,5.354,1.76,9.021h-14.52
		C317.123,39.59,316.408,37.702,315.052,36.344z"/>
	<path d="M351.627,58.619c0,0.294,0,0.588,0,0.881v1.43c0,3.3,1.025,5.978,3.08,8.03c2.052,2.054,5.205,3.079,9.459,3.079
		c1.541,0,2.916-0.236,4.125-0.715c1.211-0.476,2.272-1.081,3.19-1.814c0.916-0.732,1.722-1.576,2.42-2.53
		c0.696-0.952,1.337-1.87,1.925-2.75h15.62c-1.247,3.228-2.714,6.05-4.399,8.47c-1.688,2.42-3.705,4.455-6.051,6.105
		c-2.348,1.649-5.078,2.879-8.195,3.685c-3.117,0.807-6.729,1.21-10.834,1.21c-3.814,0-7.279-0.514-10.396-1.54
		c-3.118-1.025-5.774-2.585-7.976-4.675c-2.199-2.09-3.904-4.675-5.114-7.755s-1.815-6.672-1.815-10.78
		c0-4.546,0.732-8.927,2.2-13.145c1.466-4.216,3.538-7.956,6.216-11.22c2.676-3.263,5.957-5.866,9.844-7.811
		c3.887-1.942,8.25-2.915,13.091-2.915c3.96,0,7.571,0.514,10.835,1.54c3.262,1.028,6.05,2.585,8.359,4.675
		c2.311,2.09,4.106,4.694,5.391,7.811c1.282,3.117,1.925,6.729,1.925,10.835c0,2.788-0.294,5.758-0.88,8.91h-41.91
		C351.662,57.997,351.627,58.327,351.627,58.619z M379.071,43.385c-0.258-1.431-0.753-2.731-1.485-3.905
		c-0.733-1.172-1.797-2.107-3.189-2.805c-1.395-0.696-3.229-1.045-5.5-1.045c-2.2,0-4.145,0.33-5.83,0.989
		c-1.688,0.66-3.154,1.54-4.4,2.641c-1.248,1.1-2.293,2.384-3.135,3.85c-0.844,1.468-1.559,3.008-2.145,4.62h26.07
		C379.457,46.263,379.328,44.814,379.071,43.385z"/>
	<path d="M409.484,82.269l-7.479-56.87h16.06l3.521,40.48h0.22l20.131-40.48h16.5l-31.131,56.87H409.484z"/>
	<path d="M482.305,25.399l-12.1,56.87h-15.62l11.989-56.87H482.305z M468.335,16.599l2.86-12.87h15.729l-2.86,12.87H468.335z"/>
	<path d="M524.818,37.829c-1.725-1.466-4.346-2.199-7.865-2.199c-2.934,0-5.428,0.788-7.48,2.364
		c-2.053,1.578-3.703,3.575-4.949,5.995c-1.248,2.42-2.145,5.043-2.695,7.865c-0.55,2.824-0.824,5.445-0.824,7.865
		c0,1.688,0.182,3.282,0.549,4.785c0.367,1.504,0.99,2.805,1.871,3.904c0.879,1.101,1.996,1.98,3.354,2.641
		c1.356,0.66,3.024,0.989,5.005,0.989c1.76,0,3.317-0.292,4.675-0.88c1.356-0.586,2.566-1.355,3.63-2.31
		c1.062-0.952,1.942-2.071,2.641-3.355c0.695-1.282,1.265-2.621,1.705-4.015h15.619c-2.348,7.114-5.959,12.595-10.834,16.445
		c-4.879,3.85-11.056,5.774-18.535,5.774c-7.994,0-14.209-1.961-18.646-5.885c-4.438-3.922-6.655-10.064-6.655-18.425
		c0-4.84,0.715-9.405,2.146-13.695c1.43-4.29,3.521-8.065,6.271-11.33c2.75-3.262,6.104-5.83,10.064-7.7
		c3.96-1.869,8.506-2.805,13.641-2.805c3.445,0,6.709,0.404,9.789,1.21c3.08,0.808,5.775,2.054,8.086,3.74
		c2.309,1.688,4.142,3.888,5.5,6.6c1.355,2.714,2.07,5.94,2.145,9.681h-15.62C527.403,41.718,526.541,39.297,524.818,37.829z"/>
</g>
</svg>
